<?xml version="1.0" encoding="UTF-8"?><svg id="Calque_2" xmlns="http://www.w3.org/2000/svg" viewBox="0 0 49.53 20.39"><defs><style>.cls-1{fill:#fff;stroke-width:0px;}</style></defs><g id="Calque_1-2"><path class="cls-1" d="m44.65,2.87c1.32,0,2.2.88,2.2,2.06s-.88,2.06-2.2,2.06h-1.59V2.87h1.59Zm-.76.68v2.76h.76c.79,0,1.35-.56,1.35-1.38s-.56-1.38-1.35-1.38h-.76Z"/><path class="cls-1" d="m44.6,9.86c-2.72,0-4.93-2.21-4.93-4.93s2.21-4.93,4.93-4.93,4.93,2.21,4.93,4.93-2.21,4.93-4.93,4.93Zm0-9.11c-2.31,0-4.18,1.88-4.18,4.18s1.88,4.18,4.18,4.18,4.18-1.88,4.18-4.18-1.88-4.18-4.18-4.18Z"/><path class="cls-1" d="m0,.97h4.05v15.06h10.27l-.6,3.68H0V.97Z"/><path class="cls-1" d="m25.4,20.39c-5.54,0-10.05-4.51-10.05-10.05S19.86.3,25.4.3s10.05,4.51,10.05,10.05-4.51,10.05-10.05,10.05Zm0-16.09c-3.33,0-6.04,2.71-6.04,6.04s2.71,6.04,6.04,6.04,6.04-2.71,6.04-6.04-2.71-6.04-6.04-6.04Z"/></g></svg>