<?xml version="1.0" encoding="UTF-8"?><svg id="Calque_2" xmlns="http://www.w3.org/2000/svg" viewBox="0 0 37.39 9.62"><defs><style>.cls-1{fill:#1d1d1b;stroke-width:0px;}</style></defs><g id="Calque_1-2"><path class="cls-1" d="M2.27,9.62c-.3-.26-.57-.51-.79-.76-.22-.25-.45-.57-.67-.95s-.41-.83-.57-1.34c-.16-.52-.23-1.09-.23-1.73s.08-1.23.23-1.75.35-.97.57-1.36c.22-.38.45-.7.67-.96.22-.26.49-.51.79-.77l.59.6s-.12.09-.28.2c-.16.11-.36.28-.59.49-.23.22-.45.49-.67.82-.22.33-.4.72-.55,1.17s-.22.97-.22,1.55.08,1.12.23,1.57c.16.46.35.85.58,1.17.23.32.46.59.69.8s.5.41.81.61l-.59.64Z"/><path class="cls-1" d="M3.78,7.87V1.12h.77v6.08h3.74v.67H3.78Z"/><path class="cls-1" d="M13.67,1.12h.84l-2.39,6.76h-1.3l-2.38-6.76h.84l2.18,6.4,2.2-6.4Z"/><path class="cls-1" d="M15.14,4.9v-.59h8.37v.59h-8.37Z"/><path class="cls-1" d="M30.75,4.49c0,.89-.17,1.58-.5,2.07s-.81.83-1.42,1.03-1.32.29-2.14.29h-1.79V1.12h1.79c.82,0,1.53.13,2.14.38s1.08.63,1.42,1.12.5,1.12.5,1.87ZM25.68,7.21h1.19c.62,0,1.17-.07,1.63-.21.46-.14.82-.41,1.07-.8s.38-.96.38-1.72c0-.92-.28-1.6-.84-2.03-.56-.44-1.3-.65-2.23-.65h-1.19v5.41Z"/><path class="cls-1" d="M31.16,8.99c.31-.2.58-.4.81-.61s.46-.47.69-.8c.23-.32.43-.71.58-1.17.16-.46.23-.98.23-1.57s-.07-1.1-.22-1.55c-.15-.45-.33-.84-.55-1.17-.22-.33-.44-.6-.67-.82-.23-.22-.42-.38-.58-.49-.16-.11-.26-.18-.29-.2l.59-.6c.3.26.57.51.79.77.22.26.45.58.67.96.22.38.41.84.57,1.36.16.52.23,1.1.23,1.75s-.08,1.22-.23,1.73c-.16.52-.35.96-.57,1.34-.22.38-.45.7-.67.95-.22.25-.49.51-.79.76l-.59-.64Z"/><path class="cls-1" d="M35.54,1.27h-.5v1.28h-.24v-1.28h-.49v-.22h1.23v.22ZM37.39,2.55h-.26l.02-1.38-.39,1.38h-.37l-.38-1.38v1.38s-.24,0-.24,0v-1.5h.43l.39,1.38.37-1.38h.44v1.5Z"/></g></svg>